<svg xmlns="http://www.w3.org/2000/svg" width="16" height="16" viewBox="0 0 16 16"><path d="M15.906.656,12.094-3.156a.338.338,0,0,0-.25-.094h-.437a6.713,6.713,0,0,0,1.172-1.969A6.285,6.285,0,0,0,13-7.5a6.313,6.313,0,0,0-.875-3.266,6.567,6.567,0,0,0-2.359-2.359A6.313,6.313,0,0,0,6.5-14a6.313,6.313,0,0,0-3.266.875A6.567,6.567,0,0,0,.875-10.766,6.313,6.313,0,0,0,0-7.5,6.313,6.313,0,0,0,.875-4.234,6.567,6.567,0,0,0,3.234-1.875,6.313,6.313,0,0,0,6.5-1a6.285,6.285,0,0,0,2.281-.422A6.713,6.713,0,0,0,10.75-2.594v.438a.416.416,0,0,0,.094.25l3.813,3.781a.3.3,0,0,0,.25.125.389.389,0,0,0,.281-.125l.719-.687A.457.457,0,0,0,16,.906.338.338,0,0,0,15.906.656ZM6.5-2.5A4.891,4.891,0,0,1,4-3.172,4.964,4.964,0,0,1,2.172-5,4.891,4.891,0,0,1,1.5-7.5,4.891,4.891,0,0,1,2.172-10,4.964,4.964,0,0,1,4-11.828,4.891,4.891,0,0,1,6.5-12.5a4.891,4.891,0,0,1,2.5.672A4.964,4.964,0,0,1,10.828-10,4.891,4.891,0,0,1,11.5-7.5,4.891,4.891,0,0,1,10.828-5,4.964,4.964,0,0,1,9-3.172,4.891,4.891,0,0,1,6.5-2.5Z" transform="translate(0 14)" fill="#212529"/></svg>