<svg id="Layer_1" data-name="Layer 1" xmlns="http://www.w3.org/2000/svg" xmlns:xlink="http://www.w3.org/1999/xlink" viewBox="0 0 30 30"><defs><style>.cls-1,.cls-2,.cls-3{fill:#fff;}.cls-1{clip-rule:evenodd;}.cls-3{fill-rule:evenodd;}.cls-4{clip-path:url(#clip-path);}.cls-5{clip-path:url(#clip-path-2);}</style><clipPath id="clip-path"><path class="cls-1" d="M40.73-76.08a1.6,1.6,0,0,0-1.13-.47,1.56,1.56,0,0,0-1.13.47,1.59,1.59,0,0,0,0,2.26L58.32-53.9,38.47-34a1.6,1.6,0,0,0,0,2.27,1.61,1.61,0,0,0,2.26,0l21-21.06a1.61,1.61,0,0,0,0-2.26Z"/></clipPath><clipPath id="clip-path-2"><path class="cls-1" d="M16.49-31.71a1.56,1.56,0,0,0,1.13.47,1.56,1.56,0,0,0,1.13-.47,1.62,1.62,0,0,0,0-2.27L-1.11-53.9,18.75-73.82a1.61,1.61,0,0,0,0-2.26,1.59,1.59,0,0,0-2.26,0l-21,21a1.59,1.59,0,0,0,0,2.26Z"/></clipPath></defs><title>icon</title><path class="cls-2" d="M16.31,2.84v5h8.31v-5Zm-7.48.63h0s-.05,0-.06,0L6.65,5.59,4.5,7.73l0,0h0a.05.05,0,0,0,0,0h0a.19.19,0,0,0,0,.15V26.54a.19.19,0,0,0,.19.19h0l14.44,0a2.35,2.35,0,0,1-.05-.37l-14.2,0V8.08h4a.2.2,0,0,0,.19-.19l0-4h6.87V3.47H8.83Zm11.42.19h.44v.28a1.84,1.84,0,0,1,.43.07,1,1,0,0,1,.46.3.74.74,0,0,1,.17.43l-.45,0a.51.51,0,0,0-.24-.39.85.85,0,0,0-.37-.11v.87a4.25,4.25,0,0,1,.57.14,1,1,0,0,1,.44.28.55.55,0,0,1,.15.38.61.61,0,0,1-.16.41,1,1,0,0,1-.45.3,1.92,1.92,0,0,1-.55.1V7h-.44V6.74a2.14,2.14,0,0,1-.48-.1,1,1,0,0,1-.5-.32.82.82,0,0,1-.2-.49l.44,0a.63.63,0,0,0,.15.34.7.7,0,0,0,.34.2,1,1,0,0,0,.25.07v-1a3,3,0,0,1-.55-.14A.84.84,0,0,1,19.34,5a.48.48,0,0,1-.13-.34.59.59,0,0,1,.15-.38A1,1,0,0,1,19.8,4a2.12,2.12,0,0,1,.45-.07V3.66ZM8.7,4.1l0,3.61H5.06l2.6-2.58,1-1Zm11.55.15a.8.8,0,0,0-.4.11.34.34,0,0,0-.19.29.3.3,0,0,0,.13.25,2.15,2.15,0,0,0,.46.14V4.25Zm.44,1.26v.91A1.31,1.31,0,0,0,21,6.36a.6.6,0,0,0,.3-.16A.35.35,0,0,0,21.41,6a.28.28,0,0,0-.1-.22A.73.73,0,0,0,21,5.58a2.28,2.28,0,0,0-.3-.07ZM22,8.2V23.31a2.38,2.38,0,0,1,.37.06V8.2ZM12,12a.16.16,0,0,0-.09.07L9.12,15.87l-1.7-1.7a.2.2,0,0,0-.27,0,.18.18,0,0,0,0,.26l0,0L9,16.29a.18.18,0,0,0,.26,0l0,0,2.93-4a.19.19,0,0,0,0-.26A.17.17,0,0,0,12,12Zm2.15,0a.19.19,0,0,0-.15.22.2.2,0,0,0,.19.14h5.32a.18.18,0,0,0,.21-.15.18.18,0,0,0-.16-.21H14.17Zm0,2.39a.19.19,0,0,0,0,.37h5.32a.19.19,0,0,0,0-.37H14.17ZM12,18.64a.18.18,0,0,0-.11.08l-2.8,3.82L7.42,20.82a.2.2,0,0,0-.27,0,.18.18,0,0,0,0,.26l0,0L9,23a.19.19,0,0,0,.26,0l0,0,2.93-4a.19.19,0,0,0,0-.26.18.18,0,0,0-.16,0Zm2.13,0a.19.19,0,0,0,0,.37h5.32a.19.19,0,0,0,.21-.16.18.18,0,0,0-.16-.21H14.17Zm0,2.39a.2.2,0,0,0-.15.22.19.19,0,0,0,.19.15h5.32a.18.18,0,0,0,.21-.15.19.19,0,0,0-.16-.22H14.17Zm7.44,2.65a2.41,2.41,0,1,0,2.24,1.22L21.5,27.11a.17.17,0,0,1-.26,0L20.13,26a.19.19,0,0,1,0-.27.18.18,0,0,1,.26,0l1,1,2.27-2.14a2.35,2.35,0,0,0-.76-.63h0s0,0,0,0a2.69,2.69,0,0,0-.91-.25Z"/><path class="cls-3" d="M40.73-76.08a1.6,1.6,0,0,0-1.13-.47,1.56,1.56,0,0,0-1.13.47,1.59,1.59,0,0,0,0,2.26L58.32-53.9,38.47-34a1.6,1.6,0,0,0,0,2.27,1.61,1.61,0,0,0,2.26,0l21-21.06a1.61,1.61,0,0,0,0-2.26Z"/><g class="cls-4"><rect class="cls-2" x="-251.81" y="-809.27" width="1562.29" height="1406.06"/></g><path class="cls-3" d="M16.49-31.71a1.56,1.56,0,0,0,1.13.47,1.56,1.56,0,0,0,1.13-.47,1.62,1.62,0,0,0,0-2.27L-1.11-53.9,18.75-73.82a1.61,1.61,0,0,0,0-2.26,1.59,1.59,0,0,0-2.26,0l-21,21a1.59,1.59,0,0,0,0,2.26Z"/><g class="cls-5"><rect class="cls-2" x="-1253.27" y="-704.59" width="1562.29" height="1406.06"/></g></svg>