<?xml version="1.0" encoding="utf-8"?>
<!-- Generator: Adobe Illustrator 23.0.4, SVG Export Plug-In . SVG Version: 6.00 Build 0)  -->
<svg version="1.1" id="Layer_1" xmlns="http://www.w3.org/2000/svg" xmlns:xlink="http://www.w3.org/1999/xlink" x="0px" y="0px"
	 viewBox="0 0 50 50" style="enable-background:new 0 0 50 50;" xml:space="preserve">
<style type="text/css">
	.st0{fill-rule:evenodd;clip-rule:evenodd;fill:#FFFFFF;}
	.st1{clip-path:url(#SVGID_2_);}
	.st2{fill:#FFFFFF;}
	.st3{clip-path:url(#SVGID_4_);}
</style>
<title>haii-icon</title>
<path class="st0" d="M7.45,44.38C7.8,44.39,8.14,44.25,8.38,44l16.37-16.37L41.13,44c0.24,0.25,0.58,0.39,0.93,0.38
	c0.72,0.01,1.32-0.57,1.33-1.29c0-0.36-0.14-0.7-0.39-0.95L26.61,25.77L43,9.39c0.51-0.51,0.51-1.34-0.01-1.86s-1.34-0.51-1.85,0.01
	l0,0L24.75,23.91L8.38,7.54C7.87,7.03,7.04,7.02,6.52,7.53s-0.52,1.34,0,1.86L22.9,25.77L6.52,42.14c-0.51,0.51-0.51,1.35,0,1.86
	C6.77,44.25,7.1,44.39,7.45,44.38z"/>
<g>
	<defs>
		<path id="SVGID_1_" d="M7.45,44.38C7.8,44.39,8.14,44.25,8.38,44l16.37-16.37L41.13,44c0.24,0.25,0.58,0.39,0.93,0.38
			c0.72,0.01,1.32-0.57,1.33-1.29c0-0.36-0.14-0.7-0.39-0.95L26.61,25.77L43,9.39c0.51-0.51,0.51-1.34-0.01-1.86
			s-1.34-0.51-1.85,0.01l0,0L24.75,23.91L8.38,7.54C7.87,7.03,7.04,7.02,6.52,7.53s-0.52,1.34,0,1.86L22.9,25.77L6.52,42.14
			c-0.51,0.51-0.51,1.35,0,1.86C6.77,44.25,7.1,44.39,7.45,44.38z"/>
	</defs>
	<clipPath id="SVGID_2_">
		<use xlink:href="#SVGID_1_"  style="overflow:visible;"/>
	</clipPath>
	<g class="st1">
		<rect x="-1232.76" y="-356.82" class="st2" width="1283.84" height="1155.45"/>
		<g>
			<defs>
				<rect id="SVGID_3_" x="-1232.76" y="-356.82" width="1283.84" height="1155.45"/>
			</defs>
			<clipPath id="SVGID_4_">
				<use xlink:href="#SVGID_3_"  style="overflow:visible;"/>
			</clipPath>
			<g class="st3">
				<rect x="2.93" y="3.94" class="st2" width="43.65" height="43.65"/>
			</g>
		</g>
	</g>
</g>
</svg>
