<svg id="Layer_1" data-name="Layer 1" xmlns="http://www.w3.org/2000/svg" xmlns:xlink="http://www.w3.org/1999/xlink" viewBox="0 0 30 30"><defs><style>.cls-1,.cls-2,.cls-3{fill:#fff;}.cls-1{clip-rule:evenodd;}.cls-3{fill-rule:evenodd;}.cls-4{clip-path:url(#clip-path);}.cls-5{clip-path:url(#clip-path-2);}</style><clipPath id="clip-path"><path class="cls-1" d="M-72.27-76.08a1.6,1.6,0,0,0-1.13-.47,1.56,1.56,0,0,0-1.13.47,1.59,1.59,0,0,0,0,2.26L-54.68-53.9-74.53-34a1.6,1.6,0,0,0,0,2.27,1.61,1.61,0,0,0,2.26,0l21-21.06a1.61,1.61,0,0,0,0-2.26Z"/></clipPath><clipPath id="clip-path-2"><path class="cls-1" d="M-96.51-31.71a1.56,1.56,0,0,0,1.13.47,1.56,1.56,0,0,0,1.13-.47,1.62,1.62,0,0,0,0-2.27L-114.11-53.9l19.86-19.92a1.61,1.61,0,0,0,0-2.26,1.59,1.59,0,0,0-2.26,0l-21,21a1.59,1.59,0,0,0,0,2.26Z"/></clipPath></defs><title>icon</title><path class="cls-2" d="M7.58,22.64a15.42,15.42,0,0,0,10.69,4.49h.38a4.87,4.87,0,0,0,4.62-3.79,1.93,1.93,0,0,0-.93-2.07l-3.68-2.11a2,2,0,0,0-2.33.31l-1.69,1.69a.54.54,0,0,1-.59.12,9.58,9.58,0,0,1-5.13-5.13A.52.52,0,0,1,9,15.55l1.69-1.7a1.92,1.92,0,0,0,.3-2.32L8.93,7.85a1.93,1.93,0,0,0-2.08-.93,4.87,4.87,0,0,0-3.79,4.61A15.44,15.44,0,0,0,7.55,22.62ZM7.15,8.22l.11,0a.62.62,0,0,1,.51.31l2.11,3.68a.6.6,0,0,1-.1.72l-1.69,1.7a1.88,1.88,0,0,0-.41,2,10.94,10.94,0,0,0,5.87,5.86,1.85,1.85,0,0,0,2-.41l1.69-1.69a.6.6,0,0,1,.73-.09l3.68,2.11A.58.58,0,0,1,22,23a3.54,3.54,0,0,1-3.35,2.75A14.24,14.24,0,0,1,8.52,21.7l0,0A14.17,14.17,0,0,1,4.4,11.57,3.53,3.53,0,0,1,7.15,8.22ZM26.43,3.09H14.84a.67.67,0,0,0-.67.66h0v7.91a.67.67,0,0,0,.67.67h.53l-1.4,3a.67.67,0,0,0,.32.89.69.69,0,0,0,.64,0L21,12.33h5.45a.67.67,0,0,0,.67-.67h0V3.75a.67.67,0,0,0-.67-.66ZM25.77,11h-5a.66.66,0,0,0-.36.11l-4.29,2.73L17,11.94a.66.66,0,0,0-.32-.88.68.68,0,0,0-.28-.07H15.5V4.42H25.77Z"/><path class="cls-3" d="M-72.27-76.08a1.6,1.6,0,0,0-1.13-.47,1.56,1.56,0,0,0-1.13.47,1.59,1.59,0,0,0,0,2.26L-54.68-53.9-74.53-34a1.6,1.6,0,0,0,0,2.27,1.61,1.61,0,0,0,2.26,0l21-21.06a1.61,1.61,0,0,0,0-2.26Z"/><g class="cls-4"><rect class="cls-2" x="-364.81" y="-809.27" width="1562.29" height="1406.06"/></g><path class="cls-3" d="M-96.51-31.71a1.56,1.56,0,0,0,1.13.47,1.56,1.56,0,0,0,1.13-.47,1.62,1.62,0,0,0,0-2.27L-114.11-53.9l19.86-19.92a1.61,1.61,0,0,0,0-2.26,1.59,1.59,0,0,0-2.26,0l-21,21a1.59,1.59,0,0,0,0,2.26Z"/><g class="cls-5"><rect class="cls-2" x="-1366.27" y="-704.59" width="1562.29" height="1406.06"/></g></svg>