<svg id="Layer_1" data-name="Layer 1" xmlns="http://www.w3.org/2000/svg" xmlns:xlink="http://www.w3.org/1999/xlink" viewBox="0 0 30 30"><defs><style>.cls-1,.cls-2,.cls-3{fill:#fff;}.cls-1{clip-rule:evenodd;}.cls-3{fill-rule:evenodd;}.cls-4{clip-path:url(#clip-path);}.cls-5{clip-path:url(#clip-path-2);}</style><clipPath id="clip-path"><path class="cls-1" d="M-34.27-76.08a1.6,1.6,0,0,0-1.13-.47,1.56,1.56,0,0,0-1.13.47,1.59,1.59,0,0,0,0,2.26L-16.68-53.9-36.53-34a1.6,1.6,0,0,0,0,2.27,1.61,1.61,0,0,0,2.26,0l21-21.06a1.61,1.61,0,0,0,0-2.26Z"/></clipPath><clipPath id="clip-path-2"><path class="cls-1" d="M-58.51-31.71a1.56,1.56,0,0,0,1.13.47,1.56,1.56,0,0,0,1.13-.47,1.62,1.62,0,0,0,0-2.27L-76.11-53.9l19.86-19.92a1.61,1.61,0,0,0,0-2.26,1.59,1.59,0,0,0-2.26,0l-21,21a1.59,1.59,0,0,0,0,2.26Z"/></clipPath></defs><title>icon</title><path class="cls-2" d="M7.8,10.09a1.82,1.82,0,0,0,0-.32.15.15,0,0,0-.17-.12.15.15,0,0,0-.12.18,2.11,2.11,0,0,1,0,.26,2.45,2.45,0,0,1,0,.27.14.14,0,0,0,.12.17h0a.15.15,0,0,0,.15-.13A1.66,1.66,0,0,0,7.8,10.09Zm-.57-.86a.15.15,0,0,0,.13.07l.08,0a.15.15,0,0,0,0-.2A1.87,1.87,0,0,0,7,8.6a.16.16,0,0,0-.21,0,.15.15,0,0,0,0,.21A1.37,1.37,0,0,1,7.23,9.23ZM4.62,9.3a.14.14,0,0,0,.12-.06,1.45,1.45,0,0,1,.39-.39.16.16,0,0,0,0-.21.14.14,0,0,0-.2,0,1.68,1.68,0,0,0-.46.46.14.14,0,0,0,0,.2A.11.11,0,0,0,4.62,9.3ZM4.74,11a.14.14,0,0,0-.2,0,.15.15,0,0,0,0,.2,1.87,1.87,0,0,0,.46.47l.09,0a.16.16,0,0,0,.12-.06.15.15,0,0,0,0-.21A1.56,1.56,0,0,1,4.74,11Zm-.36-.42a.14.14,0,0,0,.12-.17,1.27,1.27,0,0,1,0-.28,1.23,1.23,0,0,1,0-.27.15.15,0,0,0-.12-.17.15.15,0,0,0-.17.12,1.82,1.82,0,0,0,0,.32,1.84,1.84,0,0,0,0,.33.14.14,0,0,0,.15.12ZM7.24,11a1.8,1.8,0,0,1-.39.39.15.15,0,0,0,0,.2.17.17,0,0,0,.13.07l.08,0a1.83,1.83,0,0,0,.46-.46.15.15,0,0,0,0-.21A.14.14,0,0,0,7.24,11ZM5.69,8.61h0a1.28,1.28,0,0,1,.55,0,.15.15,0,0,0,.17-.12.16.16,0,0,0-.12-.18,2.36,2.36,0,0,0-.65,0,.16.16,0,0,0-.12.18A.15.15,0,0,0,5.69,8.61Zm.58,3a1.28,1.28,0,0,1-.55,0,.15.15,0,0,0-.17.12.14.14,0,0,0,.12.17,1.66,1.66,0,0,0,.32,0,1.84,1.84,0,0,0,.33,0,.15.15,0,0,0,.12-.17A.15.15,0,0,0,6.27,11.58Zm0,6.37H5.64a.15.15,0,0,0-.16.14.16.16,0,0,0,.15.16h.6a.15.15,0,0,0,.14-.16A.15.15,0,0,0,6.22,18Zm1.2-.08-.55.05a.14.14,0,0,0-.14.16.14.14,0,0,0,.15.13h0l.56-.05A.15.15,0,0,0,7.58,18,.14.14,0,0,0,7.42,17.87Zm.91-.44a.15.15,0,0,0-.13.16v.16l-.15,0a.15.15,0,0,0-.13.17.16.16,0,0,0,.15.12h0L8.4,18a.16.16,0,0,0,.12-.16l0-.3A.15.15,0,0,0,8.33,17.43ZM3.88,13.64a.15.15,0,0,0-.16.13l-.05.59a.15.15,0,0,0,.13.16h0A.14.14,0,0,0,4,14.38L4,13.8A.15.15,0,0,0,3.88,13.64Zm-.3,3.41h0a.16.16,0,0,0,.15-.13l0-.59a.15.15,0,0,0-.3,0l-.05.58A.15.15,0,0,0,3.58,17.05Zm4.39-2,0,.58a.15.15,0,0,0,.15.14h0a.16.16,0,0,0,.14-.17L8.26,15a.15.15,0,0,0-.29,0Zm.11,1.26.05.59a.16.16,0,0,0,.15.13h0a.15.15,0,0,0,.13-.16l0-.58a.16.16,0,0,0-.16-.14A.15.15,0,0,0,8.08,16.32ZM4,12.38a.14.14,0,0,0-.18.1,1.25,1.25,0,0,0-.06.4l0,.21a.16.16,0,0,0,.14.16h0a.15.15,0,0,0,.15-.13l0-.22v0a1.08,1.08,0,0,1,0-.32A.14.14,0,0,0,4,12.38Zm1.57.09a.93.93,0,0,0,.27,0H6a.93.93,0,0,0,.27,0,.15.15,0,0,0,.11-.18.15.15,0,0,0-.18-.1l-.2,0H6s0,0-.06,0a.63.63,0,0,1-.23,0,.15.15,0,0,0-.07.29ZM3.69,15.78h0a.14.14,0,0,0,.15-.13l0-.58a.15.15,0,0,0-.13-.17.16.16,0,0,0-.16.14l0,.58A.14.14,0,0,0,3.69,15.78Zm3.16-3.56a.08.08,0,0,0,.07,0l.13-.07a.81.81,0,0,1,.31,0,.15.15,0,0,0,.1-.28A1.09,1.09,0,0,0,7,11.84l-.06,0-.15.08a.15.15,0,0,0-.06.2A.16.16,0,0,0,6.85,12.22Zm1.1,1a.16.16,0,0,0,.14-.16v0c0-.06,0-.11,0-.16h0A1.31,1.31,0,0,0,8,12.47a.16.16,0,0,0-.19-.1.15.15,0,0,0-.09.19,1,1,0,0,1,0,.32v0l0,.21a.15.15,0,0,0,.15.13Zm.1,1.27h0a.15.15,0,0,0,.13-.16l0-.59A.15.15,0,0,0,8,13.63a.16.16,0,0,0-.14.16l.06.58A.14.14,0,0,0,8.05,14.51Zm-3-2.57-.14-.08-.06,0a1.13,1.13,0,0,0-.48.06.15.15,0,0,0,.1.28.88.88,0,0,1,.32,0l.12.07.07,0a.14.14,0,0,0,.13-.08A.15.15,0,0,0,5.08,11.94ZM3.82,17.78l-.16,0v-.16a.15.15,0,1,0-.29,0l0,.3a.16.16,0,0,0,.12.16l.3.05h0A.15.15,0,0,0,3.94,18,.15.15,0,0,0,3.82,17.78ZM5,17.92l-.55-.05a.15.15,0,0,0-.16.13.14.14,0,0,0,.13.16l.56.05H5a.13.13,0,0,0,.14-.13A.14.14,0,0,0,5,17.92Zm15-.56A1.32,1.32,0,1,0,21.27,16,1.32,1.32,0,0,0,20,17.36Zm-3.75.41c-.2,0-.41,0-.61,0a6.36,6.36,0,0,0,3.15,3c0-.21,0-.41.05-.59A5.9,5.9,0,0,1,16.2,17.77Zm5.87,1c-.61.35-.85.29-.85.29s-.24.06-.85-.29a.64.64,0,0,0-.72.71s-.24,2.65-.36,4a11.17,11.17,0,0,0,1.93.18,10.19,10.19,0,0,0,1.93-.19c-.12-1.31-.35-4-.35-4A.64.64,0,0,0,22.07,18.78Zm-6.66-5.69A1,1,0,1,0,14.36,12,1,1,0,0,0,15.41,13.09Zm1.21.64a.5.5,0,0,0-.57-.56c-.48.28-.68.23-.68.23s-.19,0-.67-.23a.5.5,0,0,0-.57.56s-.19,2.1-.29,3.14a7.93,7.93,0,0,0,3.07,0C16.81,15.83,16.62,13.73,16.62,13.73Zm4.64-6.37a1,1,0,1,0-1-1A1,1,0,0,0,21.26,7.36ZM22.71,11l-.27-3a.49.49,0,0,0-.56-.55c-.47.27-.66.22-.66.22s-.18,0-.65-.22A.49.49,0,0,0,20,8s-.19,2-.28,3a8,8,0,0,0,3,0Zm4.58,2.34a1,1,0,1,0-1-1A1,1,0,0,0,27.29,13.38ZM23.66,20.3c0,.18,0,.38.06.59a6.4,6.4,0,0,0,3.16-2.8c-.2,0-.41,0-.62-.05A5.89,5.89,0,0,1,23.66,20.3ZM28.51,14a.51.51,0,0,0-.58-.56c-.48.28-.67.23-.67.23s-.19.05-.68-.23A.5.5,0,0,0,26,14s-.19,2.1-.28,3.14a8.42,8.42,0,0,0,1.52.14,8.65,8.65,0,0,0,1.54-.14C28.7,16.13,28.51,14,28.51,14ZM16.6,10.65a1.69,1.69,0,0,1,.37.43,5.8,5.8,0,0,1,2.1-1.49q0-.33.06-.63A6.34,6.34,0,0,0,16.6,10.65Zm9.21.61a1.9,1.9,0,0,1,.4-.4,6.49,6.49,0,0,0-2.9-2l.06.62A5.88,5.88,0,0,1,25.81,11.26ZM12.88,14.08H8.57l.1.57h4.21v.29l.59-.59-.59-.59Z"/><path class="cls-3" d="M-34.27-76.08a1.6,1.6,0,0,0-1.13-.47,1.56,1.56,0,0,0-1.13.47,1.59,1.59,0,0,0,0,2.26L-16.68-53.9-36.53-34a1.6,1.6,0,0,0,0,2.27,1.61,1.61,0,0,0,2.26,0l21-21.06a1.61,1.61,0,0,0,0-2.26Z"/><g class="cls-4"><rect class="cls-2" x="-326.81" y="-809.27" width="1562.29" height="1406.06"/></g><path class="cls-3" d="M-58.51-31.71a1.56,1.56,0,0,0,1.13.47,1.56,1.56,0,0,0,1.13-.47,1.62,1.62,0,0,0,0-2.27L-76.11-53.9l19.86-19.92a1.61,1.61,0,0,0,0-2.26,1.59,1.59,0,0,0-2.26,0l-21,21a1.59,1.59,0,0,0,0,2.26Z"/><g class="cls-5"><rect class="cls-2" x="-1328.27" y="-704.59" width="1562.29" height="1406.06"/></g></svg>