<svg id="Layer_1" data-name="Layer 1" xmlns="http://www.w3.org/2000/svg" xmlns:xlink="http://www.w3.org/1999/xlink" viewBox="0 0 30 30"><defs><style>.cls-1,.cls-2,.cls-3{fill:#fff;}.cls-1{clip-rule:evenodd;}.cls-3{fill-rule:evenodd;}.cls-4{clip-path:url(#clip-path);}.cls-5{clip-path:url(#clip-path-2);}</style><clipPath id="clip-path"><path class="cls-1" d="M2.73-76.08a1.6,1.6,0,0,0-1.13-.47,1.56,1.56,0,0,0-1.13.47,1.59,1.59,0,0,0,0,2.26L20.32-53.9.47-34a1.6,1.6,0,0,0,0,2.27,1.61,1.61,0,0,0,2.26,0l21-21.06a1.61,1.61,0,0,0,0-2.26Z"/></clipPath><clipPath id="clip-path-2"><path class="cls-1" d="M-21.51-31.71a1.56,1.56,0,0,0,1.13.47,1.56,1.56,0,0,0,1.13-.47,1.62,1.62,0,0,0,0-2.27L-39.11-53.9l19.86-19.92a1.61,1.61,0,0,0,0-2.26,1.59,1.59,0,0,0-2.26,0l-21,21a1.59,1.59,0,0,0,0,2.26Z"/></clipPath></defs><title>icon</title><path class="cls-2" d="M16.44,8.26a7.46,7.46,0,0,0-7-5A7.51,7.51,0,0,0,2,10.79a7.65,7.65,0,0,0,3.08,6.12.25.25,0,0,1,.11.26,9.66,9.66,0,0,1-1.61,4.37A7.86,7.86,0,0,0,8.1,18.39a.28.28,0,0,1,.27-.13,7.11,7.11,0,0,0,4.42-.73A8.16,8.16,0,0,1,16.44,8.26Zm-7,7a.56.56,0,0,1-.57-.55.55.55,0,0,1,.55-.57.56.56,0,0,1,.57.55h0A.55.55,0,0,1,9.44,15.27Zm1.13-4.57a2,2,0,0,0-.86,1.56V13a.27.27,0,0,1-.27.28A.28.28,0,0,1,9.16,13h0v-.77a2.5,2.5,0,0,1,1.08-2,1.41,1.41,0,0,0-.55-2.52A1.39,1.39,0,0,0,8.55,8a1.42,1.42,0,0,0-.49,1.07.28.28,0,0,1-.55,0h0A1.95,1.95,0,0,1,9.79,7.18,2,2,0,0,1,11.33,9.5a2,2,0,0,1-.76,1.2Z"/><path class="cls-2" d="M24.81,21.39a7.62,7.62,0,0,0,3.08-6.12,7.44,7.44,0,1,0-7.43,7.56,6.32,6.32,0,0,0,1.06-.09.29.29,0,0,1,.27.13A7.89,7.89,0,0,0,26.32,26a9.72,9.72,0,0,1-1.62-4.37A.29.29,0,0,1,24.81,21.39Zm-7.66-9.2h6.61a.28.28,0,0,1,.28.28.29.29,0,0,1-.28.28H17.15a.28.28,0,0,1,0-.56Zm-1.38,3.08a.29.29,0,0,1,.28-.28h8.81a.28.28,0,0,1,0,.56H16.05a.29.29,0,0,1-.28-.28Zm8,3.08H17.15a.27.27,0,0,1-.27-.29.27.27,0,0,1,.27-.27h6.61a.28.28,0,0,1,.28.28A.29.29,0,0,1,23.76,18.35Z"/><path class="cls-3" d="M2.73-76.08a1.6,1.6,0,0,0-1.13-.47,1.56,1.56,0,0,0-1.13.47,1.59,1.59,0,0,0,0,2.26L20.32-53.9.47-34a1.6,1.6,0,0,0,0,2.27,1.61,1.61,0,0,0,2.26,0l21-21.06a1.61,1.61,0,0,0,0-2.26Z"/><g class="cls-4"><rect class="cls-2" x="-289.81" y="-809.27" width="1562.29" height="1406.06"/></g><path class="cls-3" d="M-21.51-31.71a1.56,1.56,0,0,0,1.13.47,1.56,1.56,0,0,0,1.13-.47,1.62,1.62,0,0,0,0-2.27L-39.11-53.9l19.86-19.92a1.61,1.61,0,0,0,0-2.26,1.59,1.59,0,0,0-2.26,0l-21,21a1.59,1.59,0,0,0,0,2.26Z"/><g class="cls-5"><rect class="cls-2" x="-1291.27" y="-704.59" width="1562.29" height="1406.06"/></g></svg>