<?xml version="1.0" encoding="utf-8"?>
<!-- Generator: Adobe Illustrator 23.0.4, SVG Export Plug-In . SVG Version: 6.00 Build 0)  -->
<svg version="1.1" id="center" xmlns="http://www.w3.org/2000/svg" xmlns:xlink="http://www.w3.org/1999/xlink" x="0px" y="0px"
	 viewBox="0 0 63 63" style="enable-background:new 0 0 63 63;" xml:space="preserve">
<g>
	<g>
		<g>
			<path d="M40.52,19.66c-4.41,0-8.06,3.2-8.79,7.4c0.35,0.6,0.64,1.23,0.85,1.89c0.73-0.16,1.49-0.28,2.33-0.28
				c2.74,0,4.87,0.93,6.41,2.38c1.8,1.29,2.97,3.21,3.51,5.32c2.75-1.52,4.62-4.42,4.62-7.79C49.45,23.65,45.45,19.66,40.52,19.66z"
				/>
		</g>
		<g>
			<path d="M41.7,16.45c0,0.65-0.53,1.17-1.17,1.17l0,0c-0.65,0-1.18-0.52-1.18-1.17v-4.62c0-0.65,0.53-1.18,1.18-1.18l0,0
				c0.65,0,1.17,0.53,1.17,1.18V16.45z"/>
		</g>
		<g>
			<path d="M32.77,19.17c0.46,0.46,0.46,1.2,0,1.66l0,0c-0.46,0.46-1.2,0.46-1.66,0l-3.27-3.27c-0.46-0.46-0.46-1.2,0-1.66l0,0
				c0.46-0.46,1.2-0.46,1.66,0L32.77,19.17z"/>
		</g>
		<g>
			<path d="M48.27,38c-0.46-0.46-0.46-1.2,0-1.66l0,0c0.46-0.46,1.2-0.46,1.66,0l3.27,3.27c0.46,0.46,0.46,1.2,0,1.66l0,0
				c-0.46,0.46-1.2,0.46-1.66,0L48.27,38z"/>
		</g>
		<g>
			<path d="M52.66,29.76c-0.65,0-1.17-0.53-1.17-1.18l0,0c0-0.65,0.53-1.18,1.17-1.18h4.62c0.65,0,1.18,0.52,1.18,1.18l0,0
				c0,0.65-0.53,1.18-1.17,1.18L52.66,29.76z"/>
		</g>
		<g>
			<path d="M49.93,20.83c-0.46,0.46-1.2,0.46-1.66,0l0,0c-0.46-0.46-0.46-1.2,0-1.66l3.27-3.27c0.46-0.46,1.2-0.46,1.66,0l0,0
				c0.46,0.46,0.46,1.21,0,1.66L49.93,20.83z"/>
		</g>
	</g>
	<g>
		<path d="M36.91,46.83H16.12c-4.78,0-8.67-3.89-8.67-8.67c0-4.65,3.69-8.46,8.3-8.66c0.51-4.73,4.53-8.42,9.39-8.42
			c4.02,0,7.55,2.6,8.87,6.29c0.94-0.29,1.92-0.44,2.91-0.44c5.48,0,9.95,4.46,9.95,9.95C46.85,42.37,42.39,46.83,36.91,46.83z
			 M16.12,32.5c-3.12,0-5.66,2.54-5.66,5.66c0,3.12,2.54,5.66,5.66,5.66h20.79c3.83,0,6.94-3.11,6.94-6.94
			c0-3.83-3.11-6.94-6.94-6.94c-1.14,0-2.23,0.27-3.24,0.81l-1.89,1l-0.3-2.12c-0.44-3.16-3.17-5.54-6.34-5.54
			c-3.55,0-6.44,2.89-6.44,6.44c0.03,0.26,0.05,0.37,0.06,0.48l0.13,1.88l-1.87-0.29C16.72,32.55,16.43,32.5,16.12,32.5z"/>
	</g>
</g>
</svg>
